<svg width="1600" height="900" viewBox="0 0 1600 900" fill="none" xmlns="http://www.w3.org/2000/svg">
  <defs>
    <linearGradient id="bg" x1="0" y1="0" x2="1600" y2="900" gradientUnits="userSpaceOnUse">
      <stop offset="0" stop-color="#16201F"/>
      <stop offset="0.52" stop-color="#21312F"/>
      <stop offset="1" stop-color="#18181B"/>
    </linearGradient>
    <linearGradient id="panel" x1="260" y1="147" x2="1350" y2="764" gradientUnits="userSpaceOnUse">
      <stop stop-color="#F7F2E8" stop-opacity="0.96"/>
      <stop offset="1" stop-color="#DFEDE8" stop-opacity="0.91"/>
    </linearGradient>
    <linearGradient id="teal" x1="0" y1="0" x2="1" y2="1">
      <stop stop-color="#39B9A6"/>
      <stop offset="1" stop-color="#1D766F"/>
    </linearGradient>
    <linearGradient id="coral" x1="0" y1="0" x2="1" y2="1">
      <stop stop-color="#F48A73"/>
      <stop offset="1" stop-color="#D85545"/>
    </linearGradient>
    <filter id="softShadow" x="-30%" y="-30%" width="160%" height="160%" color-interpolation-filters="sRGB">
      <feDropShadow dx="0" dy="26" stdDeviation="34" flood-color="#07110F" flood-opacity="0.36"/>
    </filter>
    <filter id="cardShadow" x="-40%" y="-40%" width="180%" height="180%" color-interpolation-filters="sRGB">
      <feDropShadow dx="0" dy="16" stdDeviation="18" flood-color="#07110F" flood-opacity="0.18"/>
    </filter>
    <radialGradient id="warmGlow" cx="0" cy="0" r="1" gradientUnits="userSpaceOnUse" gradientTransform="translate(1084 408) rotate(90) scale(210 210)">
      <stop stop-color="#F7B456" stop-opacity="0.55"/>
      <stop offset="1" stop-color="#F7B456" stop-opacity="0"/>
    </radialGradient>
  </defs>

  <rect width="1600" height="900" fill="url(#bg)"/>
  <path d="M0 693C182 622 330 643 508 701C705 765 881 777 1105 710C1286 656 1423 650 1600 702V900H0V693Z" fill="#243B37" opacity="0.5"/>
  <circle cx="1166" cy="232" r="294" fill="#23514B" opacity="0.16"/>
  <circle cx="393" cy="702" r="250" fill="#C86855" opacity="0.11"/>

  <g filter="url(#softShadow)">
    <rect x="218" y="126" width="1164" height="640" rx="36" fill="url(#panel)"/>
  </g>
  <rect x="246" y="154" width="1108" height="584" rx="28" stroke="#12332F" stroke-opacity="0.12" stroke-width="2"/>

  <g opacity="0.34">
    <path d="M980 266L1092 356L1208 309L1286 438L1180 553L1036 520L940 626" stroke="#1D766F" stroke-width="6" stroke-linecap="round"/>
    <path d="M1092 356L1036 520M1208 309L1180 553M1286 438L1036 520" stroke="#1D766F" stroke-width="3" stroke-linecap="round"/>
    <circle cx="980" cy="266" r="17" fill="#39B9A6"/>
    <circle cx="1092" cy="356" r="22" fill="#F7B456"/>
    <circle cx="1208" cy="309" r="15" fill="#39B9A6"/>
    <circle cx="1286" cy="438" r="19" fill="#F48A73"/>
    <circle cx="1180" cy="553" r="22" fill="#39B9A6"/>
    <circle cx="1036" cy="520" r="16" fill="#F7B456"/>
    <circle cx="940" cy="626" r="13" fill="#39B9A6"/>
  </g>
  <circle cx="1084" cy="408" r="210" fill="url(#warmGlow)"/>

  <text x="320" y="266" fill="#142220" font-family="Inter, Arial, sans-serif" font-size="72" font-weight="800" letter-spacing="0">Nunchi Translator MCP</text>
  <text x="323" y="315" fill="#49615D" font-family="Inter, Arial, sans-serif" font-size="28" font-weight="500" letter-spacing="0">Reads nuance. Drafts safer replies.</text>

  <g filter="url(#cardShadow)">
    <path d="M354 388C354 359.281 377.281 336 406 336H754C782.719 336 806 359.281 806 388V462C806 490.719 782.719 514 754 514H457L397 562V514H406C377.281 514 354 490.719 354 462V388Z" fill="#FFFFFF"/>
    <rect x="400" y="383" width="315" height="16" rx="8" fill="#506B66" opacity="0.22"/>
    <rect x="400" y="420" width="242" height="16" rx="8" fill="#506B66" opacity="0.18"/>
    <rect x="400" y="457" width="336" height="16" rx="8" fill="#506B66" opacity="0.13"/>
  </g>

  <g filter="url(#cardShadow)">
    <path d="M500 596C500 569.49 521.49 548 548 548H882C908.51 548 930 569.49 930 596V652C930 678.51 908.51 700 882 700H621L562 742V700H548C521.49 700 500 678.51 500 652V596Z" fill="#ECFFFA"/>
    <rect x="548" y="596" width="270" height="15" rx="7.5" fill="#1D766F" opacity="0.24"/>
    <rect x="548" y="630" width="202" height="15" rx="7.5" fill="#1D766F" opacity="0.18"/>
  </g>

  <g filter="url(#cardShadow)">
    <rect x="904" y="382" width="283" height="78" rx="16" fill="#FFFFFF" fill-opacity="0.96"/>
    <circle cx="944" cy="421" r="20" fill="url(#teal)"/>
    <path d="M935 421L942 428L955 413" stroke="white" stroke-width="5" stroke-linecap="round" stroke-linejoin="round"/>
    <text x="980" y="415" fill="#172623" font-family="Inter, Arial, sans-serif" font-size="22" font-weight="750" letter-spacing="0">Tone rewrite</text>
    <rect x="980" y="431" width="142" height="9" rx="4.5" fill="#506B66" opacity="0.18"/>
  </g>

  <g filter="url(#cardShadow)">
    <rect x="1013" y="488" width="274" height="78" rx="16" fill="#FFFFFF" fill-opacity="0.96"/>
    <circle cx="1053" cy="527" r="20" fill="url(#coral)"/>
    <path d="M1043 527H1063M1053 517V537" stroke="white" stroke-width="5" stroke-linecap="round"/>
    <text x="1089" y="521" fill="#172623" font-family="Inter, Arial, sans-serif" font-size="22" font-weight="750" letter-spacing="0">Reply draft</text>
    <rect x="1089" y="537" width="122" height="9" rx="4.5" fill="#506B66" opacity="0.18"/>
  </g>

  <g filter="url(#cardShadow)">
    <rect x="848" y="594" width="302" height="78" rx="16" fill="#FFFFFF" fill-opacity="0.96"/>
    <circle cx="888" cy="633" r="20" fill="#F7B456"/>
    <path d="M878 633H898" stroke="white" stroke-width="5" stroke-linecap="round"/>
    <text x="924" y="627" fill="#172623" font-family="Inter, Arial, sans-serif" font-size="22" font-weight="750" letter-spacing="0">Boundary line</text>
    <rect x="924" y="643" width="150" height="9" rx="4.5" fill="#506B66" opacity="0.18"/>
  </g>

  <g transform="translate(320 632)">
    <rect width="126" height="40" rx="20" fill="#16201F" fill-opacity="0.1"/>
    <circle cx="26" cy="20" r="8" fill="#39B9A6"/>
    <circle cx="52" cy="20" r="8" fill="#F7B456"/>
    <circle cx="78" cy="20" r="8" fill="#F48A73"/>
    <path d="M100 20H110" stroke="#1D766F" stroke-width="5" stroke-linecap="round"/>
  </g>

  <g opacity="0.18">
    <path d="M1264 196H1308M1286 174V218" stroke="#12332F" stroke-width="8" stroke-linecap="round"/>
    <path d="M280 408H314M297 391V425" stroke="#12332F" stroke-width="6" stroke-linecap="round"/>
    <path d="M1260 668H1306" stroke="#12332F" stroke-width="7" stroke-linecap="round"/>
  </g>
</svg>
